<svg xmlns="http://www.w3.org/2000/svg" width="32" height="32" enable-background="new 0 0 32 32" viewBox="0 0 32 32"><path d="M22,9c-4.962,0-9,4.037-9,9c0,4.625,3.507,8.441,8,8.941V28c0,0.552-0.449,1-1,1H4c-0.551,0-1-0.448-1-1V10h4
		c1.654,0,3-1.346,3-3V3h10c0.551,0,1,0.448,1,1v3c0,0.553,0.448,1,1,1s1-0.447,1-1V4c0-1.654-1.346-3-3-3H9
		C8.867,1,8.736,1.027,8.615,1.077C8.494,1.128,8.384,1.202,8.292,1.294L1.294,8.292C1.202,8.384,1.128,8.493,1.078,8.615
		C1.027,8.735,1,8.866,1,9v19c0,1.654,1.346,3,3,3h16c1.654,0,3-1.346,3-3v-1.059c4.493-0.5,8-4.316,8-8.941
		C31,13.037,26.962,9,22,9z M8,4.414V7c0,0.552-0.449,1-1,1H4.414L8,4.414z M28.92,17h-4.506l3.184-3.185
		C28.284,14.731,28.75,15.817,28.92,17z M22,11c1.57,0,3.016,0.525,4.184,1.401L22,16.586l-4.184-4.185
		C18.984,11.525,20.43,11,22,11z M22,25c-3.86,0-7-3.141-7-7c0-1.569,0.526-3.016,1.402-4.185l4.891,4.891
		c0.092,0.093,0.203,0.166,0.326,0.217C21.74,18.974,21.87,19,22,19h6.92C28.432,22.387,25.52,25,22,25z"/><path d="M10 12H6c-.552 0-1 .447-1 1s.448 1 1 1h4c.552 0 1-.447 1-1S10.552 12 10 12zM10 16H6c-.552 0-1 .447-1 1s.448 1 1 1h4c.552 0 1-.447 1-1S10.552 16 10 16zM10 20H6c-.552 0-1 .447-1 1s.448 1 1 1h4c.552 0 1-.447 1-1S10.552 20 10 20z"/></svg>